<svg width="89" height="89" viewBox="0 0 89 89" fill="none" xmlns="http://www.w3.org/2000/svg">
<path d="M85.6743 61.0093C83.9761 60.8744 80.4517 62.9554 79.5021 63.495C76.0691 65.3833 71.303 68.3506 68.1803 70.7206C67.9612 70.8748 67.669 71.0867 67.4499 71.2409C66.0438 72.2428 64.5464 72.898 62.9029 73.2833C53.809 75.4029 40.5332 75.6341 40.5332 75.6341L39.7663 75.6726C39.1819 75.7112 38.6706 75.268 38.5793 74.6514C38.488 73.977 38.9445 73.3411 39.6019 73.2833L59.3238 71.2216C61.4968 70.9711 63.2316 68.736 62.9942 66.2311C62.7568 63.7262 60.6568 61.8957 58.4838 62.1654L40.935 61.9342C39.748 61.9149 37.8306 61.5874 36.6802 61.2213C25.3766 57.5988 19.0035 60.99 15.607 62.5701C14.8583 61.202 13.4157 60.3157 11.8087 60.4313L4.24868 60.9901C1.72867 61.1827 -0.17047 63.4757 0.01214 66.1347L1.21736 84.5168C1.39997 87.1759 3.57303 89.1798 6.09304 88.9871L13.6531 88.4283C15.2418 88.3127 16.5566 87.2337 17.1227 85.7693L50.3394 87.33C54.0463 87.7539 57.5159 87.2722 60.7664 85.4032L61.716 84.8637L86.843 68.7745C88.0848 67.9845 88.9613 66.6164 88.9978 65.0942C89.0526 63.2445 88.0665 61.202 85.6743 61.0093ZM8.85045 84.6324C7.42609 84.6324 6.27565 83.4185 6.27565 81.9156C6.27565 80.4127 7.42609 79.1987 8.85045 79.1987C10.2748 79.1987 11.4252 80.4127 11.4252 81.9156C11.4252 83.3993 10.2748 84.6324 8.85045 84.6324Z" fill="#1D1D1D"/>
<path d="M66.6101 63.938C66.7927 64.5353 66.9388 65.1519 66.9936 65.8071C67.0484 66.3274 67.0484 66.8476 67.0119 67.3486C67.2675 67.1559 67.5414 66.944 67.7971 66.7513C70.3536 64.7858 75.6128 61.6642 78.571 60.0263C79.4658 59.5253 80.4154 59.0436 81.4197 58.639C80.1232 57.6948 78.7354 57.6562 77.311 58.2536C74.4806 59.4675 69.2945 62.223 66.6466 63.8031C66.6466 63.8609 66.6284 63.8994 66.6101 63.938Z" fill="#1D1D1D"/>
<path d="M70.5361 56.0958C68.8013 56.8472 64.8935 58.2346 63.1587 59.2365C63.9074 59.7375 64.5648 60.3541 65.1309 61.0863C65.2404 61.0092 65.35 60.9129 65.4778 60.8358L66.7379 60.0651C68.6005 58.9475 72.5449 57.4253 74.5901 56.4233C73.2936 55.5177 71.924 55.4792 70.5361 56.0958Z" fill="#1D1D1D"/>
<path d="M26.9471 26.8845C27.2027 27.2699 27.1844 27.5397 26.9471 27.925C25.8331 29.6978 24.7375 31.4705 23.6783 33.2624C22.6557 34.9966 23.2949 37.0006 25.1027 37.7328C26.9836 38.5035 28.8462 39.255 30.7271 39.9872C31.1288 40.1413 31.2566 40.3533 31.2749 40.7772C31.3662 42.7811 31.5671 44.7851 31.5488 46.789C31.5306 48.8315 33.2288 50.6235 35.5297 49.8527C37.3558 49.2361 39.2367 48.7929 41.081 48.2342C41.4463 48.1185 41.6654 48.1956 41.921 48.5232C43.1445 50.1417 44.3863 51.7603 45.6463 53.3596C47.0158 55.113 48.988 55.113 50.3393 53.3596C51.5811 51.741 52.8046 50.1417 54.0281 48.5039C54.2654 48.1956 54.4663 48.08 54.8498 48.1956C56.7672 48.7544 58.6846 49.2939 60.6203 49.8335C62.5924 50.3922 64.2542 49.1205 64.3638 46.9817C64.4733 44.8814 64.5829 42.8004 64.6559 40.7001C64.6742 40.2184 64.8751 40.0257 65.2585 39.8716C67.0846 39.1586 68.8925 38.4072 70.7003 37.6557C72.6542 36.8464 73.2751 34.8425 72.1429 32.9927C71.0655 31.2585 70.0064 29.5051 68.9107 27.7902C68.6551 27.4048 68.6733 27.135 68.9107 26.7497C69.9699 25.054 71.0107 23.3584 72.0516 21.6435C73.2751 19.6395 72.636 17.6356 70.5177 16.8263C68.7099 16.1326 66.9203 15.3812 65.1307 14.6875C64.7472 14.5334 64.6011 14.3214 64.5829 13.8782C64.4916 11.7972 64.382 9.73547 64.2725 7.67373C64.1629 5.4771 62.5194 4.22464 60.5107 4.78343C58.6116 5.32295 56.7124 5.84321 54.8315 6.42127C54.3933 6.55615 54.1741 6.44053 53.9002 6.0937C52.695 4.4944 51.4533 2.89511 50.2298 1.31508C48.8967 -0.438361 46.888 -0.438361 45.5367 1.31508C44.3315 2.89511 43.108 4.45587 41.9393 6.07443C41.6106 6.51761 41.3184 6.59468 40.8436 6.44053C38.9993 5.88174 37.1367 5.38076 35.8036 4.99539C33.2106 4.34025 31.6949 5.45783 31.5488 7.69299C31.4027 9.79327 31.3297 11.8743 31.2566 13.9746C31.2384 14.4177 31.0923 14.6104 30.7271 14.7646C28.8645 15.4968 27.0018 16.2483 25.1575 17.019C23.2401 17.8283 22.6375 19.813 23.7696 21.6435C24.774 23.4162 25.8514 25.1504 26.9471 26.8845ZM40.9167 35.7288C41.0993 35.0352 41.2819 34.3415 41.4828 33.6478C41.7202 32.8385 41.921 32.7422 42.615 33.1276C43.8019 33.7827 45.0802 34.1488 46.395 34.3222C47.2532 34.4378 48.0932 34.3415 48.8785 33.9754C50.3576 33.301 50.595 31.4897 49.335 30.4107C48.915 30.0446 48.4219 29.7748 47.9289 29.5436C46.6324 28.9463 45.2811 28.4838 44.0576 27.7131C42.0671 26.4606 40.8071 24.7457 40.9715 22.183C41.1358 19.2927 42.688 17.5007 45.1898 16.5373C46.2306 16.1326 46.2306 16.1519 46.2306 15.0151C46.2306 14.6297 46.2306 14.2443 46.2306 13.8589C46.2489 12.9919 46.395 12.857 47.1985 12.8377C47.4541 12.8377 47.6915 12.8377 47.9472 12.8377C49.6637 12.8377 49.6637 12.8377 49.6819 14.649C49.6819 15.94 49.6819 15.94 50.9054 16.1519C51.8367 16.3061 52.7315 16.5951 53.5898 16.9997C54.0646 17.2117 54.2472 17.5778 54.1011 18.098C53.882 18.8881 53.6811 19.6781 53.4437 20.4488C53.2246 21.181 52.9872 21.2966 52.3298 20.9498C50.9785 20.2561 49.5724 19.9671 48.075 20.0634C47.6915 20.0827 47.308 20.1405 46.9428 20.3139C45.6645 20.9113 45.4454 22.3949 46.5411 23.3198C47.0889 23.7823 47.728 24.1291 48.3854 24.4181C49.5176 24.9191 50.668 25.4009 51.7454 26.0174C55.1968 28.0214 56.1098 32.588 53.6994 35.7096C52.8228 36.8271 51.6906 37.5979 50.3576 37.9833C49.7732 38.1567 49.5176 38.465 49.5359 39.1008C49.5541 39.7174 49.5359 40.3533 49.5359 40.9699C49.5359 41.5287 49.2619 41.837 48.7506 41.837C48.1115 41.8562 47.4724 41.8562 46.8332 41.837C46.2671 41.8177 46.0115 41.4901 46.0115 40.9121C46.0115 40.4496 46.0115 40.0065 45.9932 39.544C45.975 38.542 45.9567 38.4842 45.0254 38.3494C43.8567 38.1567 42.688 37.8676 41.6106 37.3281C40.7523 36.8849 40.6793 36.6537 40.9167 35.7288Z" fill="#1D1D1D"/>
</svg>
