<svg width="85" height="89" viewBox="0 0 85 89" fill="none" xmlns="http://www.w3.org/2000/svg">
<path d="M41.8572 42.8713C48.5995 42.8713 54.4377 40.7589 59.208 36.5911C63.9782 32.424 66.3964 27.3254 66.3964 21.435C66.3964 15.5466 63.9782 10.4472 59.2072 6.2788C54.4362 2.1124 48.5987 0 41.8572 0C35.1142 0 29.2775 2.1124 24.5073 6.27948C19.737 10.4466 17.3181 15.5459 17.3181 21.435C17.3181 27.3254 19.737 32.4247 24.5081 36.5918C29.2791 40.7582 35.1166 42.8713 41.8572 42.8713Z" fill="#1D1D1D"/>
<path d="M84.794 68.4361C84.6564 66.7019 84.3782 64.8102 83.9685 62.8126C83.555 60.8 83.0226 58.8974 82.3852 57.1585C81.7268 55.3611 80.8314 53.5862 79.7245 51.8853C78.5757 50.1198 77.2263 48.5826 75.7121 47.3176C74.1288 45.9942 72.1902 44.9302 69.9485 44.1541C67.7146 43.382 65.2389 42.9909 62.5907 42.9909C61.5507 42.9909 60.5448 43.3637 58.6024 44.4684C57.4069 45.1495 56.0086 45.9371 54.4478 46.8083C53.1131 47.5511 51.3052 48.2471 49.072 48.8772C46.8933 49.4931 44.6811 49.8055 42.4977 49.8055C40.3143 49.8055 38.1029 49.4931 35.9218 48.8772C33.6909 48.2478 31.883 47.5518 30.5499 46.809C29.0039 45.946 27.6048 45.1583 26.3914 44.4678C24.4513 43.363 23.4447 42.9902 22.4047 42.9902C19.7557 42.9902 17.2808 43.382 15.0476 44.1547C12.8074 44.9295 10.8681 45.9935 9.2832 47.3182C7.76981 48.5839 6.41966 50.1205 5.27237 51.8853C4.16629 53.5862 3.27085 55.3604 2.6117 57.1591C1.9751 58.8981 1.44265 60.8 1.02913 62.8126C0.619502 64.8075 0.341231 66.6999 0.203651 68.4382C0.0684017 70.1411 0 71.9086 0 73.6937C0 78.3395 1.69061 82.1005 5.02442 84.8743C8.31703 87.6114 12.6737 88.9999 17.9718 88.9999H67.0282C72.3263 88.9999 76.6814 87.612 79.9748 84.8743C83.3094 82.1026 85 78.3408 85 73.693C84.9992 71.8998 84.93 70.1309 84.794 68.4361Z" fill="#1D1D1D"/>
</svg>
