<svg width="89" height="89" viewBox="0 0 89 89" fill="none" xmlns="http://www.w3.org/2000/svg">
<g clip-path="url(#clip0)">
<path d="M69.6763 71.8033C83.0374 57.8607 82.5662 35.7268 68.6236 22.3657C54.681 9.0046 32.5471 9.476 19.186 23.4184C6.22552 36.943 6.22552 58.2787 19.186 71.8033L10.1012 83.9141C9.04797 85.3187 9.33256 87.311 10.7369 88.3642C12.1412 89.4175 14.1337 89.1329 15.187 87.7286L23.992 75.9865C36.1729 84.8616 52.6893 84.8616 64.8699 75.9865L73.6749 87.7286C74.7282 89.1331 76.7207 89.4177 78.125 88.3642C79.5296 87.311 79.8142 85.3185 78.7607 83.9141L69.6763 71.8033ZM47.61 47.6771C47.61 48.3649 47.3869 49.0341 46.9743 49.5843L37.4383 62.2991C36.385 63.7036 34.3925 63.9882 32.9882 62.9348C31.5838 61.8814 31.299 59.889 32.3525 58.4847L41.2529 46.6186V28.6049C41.2529 26.8493 42.676 25.4262 44.4316 25.4262C46.1872 25.4262 47.6104 26.8493 47.6104 28.6049V47.6771H47.61Z" fill="black"/>
<path d="M27.0596 4.65324C20.7751 -1.4748 10.7129 -1.34796 4.58467 4.93653C-1.43385 11.1087 -1.4346 20.9536 4.58318 27.1267C5.82454 28.3677 7.83662 28.3677 9.0778 27.1267L27.0596 9.14804C28.3006 7.90668 28.3006 5.89461 27.0596 4.65324Z" fill="black"/>
<path d="M84.2761 4.65271C78.0696 -1.55188 68.0091 -1.55188 61.8028 4.65271C60.5618 5.89407 60.5618 7.90615 61.8028 9.14733L79.7815 27.126C81.0228 28.367 83.0349 28.367 84.2761 27.126C90.4807 20.9197 90.4807 10.8592 84.2761 4.65271Z" fill="black"/>
</g>
<defs>
<clipPath id="clip0">
<rect width="89" height="89" fill="white"/>
</clipPath>
</defs>
</svg>
