<svg width="89" height="89" viewBox="0 0 89 89" fill="none" xmlns="http://www.w3.org/2000/svg">
<path d="M43.8025 89H36.8494C33.3987 89 30.5916 86.1928 30.5916 82.7422V39.6328C30.5916 36.1822 33.3987 33.375 36.8494 33.375H43.8025C47.2532 33.375 50.0603 36.1822 50.0603 39.6328V82.7422C50.0603 86.1928 47.253 89 43.8025 89Z" fill="#1D1D1D"/>
<path d="M17.3806 89H10.4275C6.97683 89 4.16968 86.1928 4.16968 82.7422V53.5391C4.16968 50.0884 6.97683 47.2812 10.4275 47.2812H17.3806C20.8313 47.2812 23.6384 50.0884 23.6384 53.5391V82.7422C23.6384 86.1928 20.8311 89 17.3806 89Z" fill="#1D1D1D"/>
<path d="M70.2245 89H63.2714C59.8207 89 57.0136 86.1928 57.0136 82.7422V25.0312H53.1928C51.4066 25.0312 49.8331 24.023 49.0867 22.4002C48.3402 20.7773 48.5987 18.9268 49.7613 17.5704C49.7745 17.5549 49.7881 17.5394 49.8016 17.5243L64.6766 0.925113C65.2042 0.336357 65.9574 0 66.7479 0C67.5385 0 68.2915 0.336357 68.8193 0.925113L83.6943 17.5243C83.708 17.5394 83.7214 17.5549 83.7346 17.5704C84.8972 18.9266 85.1556 20.7773 84.4092 22.4002C83.6628 24.023 82.0893 25.0312 80.303 25.0312H76.4823V82.7422C76.4823 86.1928 73.675 89 70.2245 89Z" fill="#1D1D1D"/>
</svg>
